# xmcd CD database file
#
# Track frame offsets:
#	150
#	30047
#	45782
#	70822
#	87585
#	111072
#	132865
#	164902
#	183022
#	202342
#	222600
#	242620
#
# Disc length: 3489 seconds
#
# Revision: 4
# Processed by: cddbd v1.5.2PL0 Copyright (c) Steve Scherf et al.
# Submitted via: CDex 1.51
#
DISCID=a50d9f0c
DTITLE=Suicidal Tendencies - The Art Of Rebellion
DYEAR=1992
DGENRE=Rock
TTITLE0=Can't Stop
TTITLE1=Accept My Sacrifice
TTITLE2=Nobody Hears
TTITLE3=Tap Into The Power
TTITLE4=Monopoly On Sorrow
TTITLE5=We Call This Mutha Revenge
TTITLE6=I Wasn't Meant To Feel This - Asleep At The Wheel
TTITLE7=Gotta Kill Captain Stupid
TTITLE8=I'll Hate You Better
TTITLE9=Which Way To Free?
TTITLE10=It's Going Down
TTITLE11=Where's The Truth
EXTD=YEAR: 1992
EXTT0=
EXTT1=
EXTT2=
EXTT3=
EXTT4=
EXTT5=
EXTT6=
EXTT7=
EXTT8=
EXTT9=
EXTT10=
EXTT11=
PLAYORDER=
